<svg width="113" height="60" viewBox="0 0 113 60" fill="none" xmlns="http://www.w3.org/2000/svg">
<g clip-path="url(#clip0_433_142)">
<circle cx="56.9056" cy="9.919" r="8.919" fill="#FEB3E2"/>
<circle cx="63.3921" cy="14.7837" r="8.919" fill="#FEB3E2"/>
<circle cx="50.419" cy="14.7837" r="8.919" fill="#FEB3E2"/>
<circle cx="53.2569" cy="22.0811" r="8.919" fill="#FEB3E2"/>
<circle cx="60.9598" cy="22.0811" r="8.919" fill="#FEB3E2"/>
<circle cx="56.9056" cy="9.919" r="8.744" stroke="#F8EAF0" stroke-width="0.35"/>
<circle cx="63.3921" cy="14.7837" r="8.744" stroke="#F8EAF0" stroke-width="0.35"/>
<circle cx="50.419" cy="14.7837" r="8.744" stroke="#F8EAF0" stroke-width="0.35"/>
<circle cx="53.2569" cy="22.0811" r="8.744" stroke="#F8EAF0" stroke-width="0.35"/>
<circle cx="60.9598" cy="22.0811" r="8.744" stroke="#F8EAF0" stroke-width="0.35"/>
</g>
<path d="M19.5052 44.314H20.9472L21.4092 48.108L21.5772 50.264H21.6612L22.1932 48.108L23.2292 44.314H24.3912L25.4272 48.108L25.9592 50.264H26.0432L26.2112 48.108L26.6732 44.314H28.0872L26.9952 52H25.3712L24.2372 47.632L23.8312 45.938H23.7612L23.3552 47.632L22.2212 52H20.5972L19.5052 44.314ZM36.05 52.168C35.5834 52.168 35.1447 52.1027 34.734 51.972C34.3327 51.832 33.9827 51.6453 33.684 51.412C33.3947 51.1693 33.166 50.88 32.998 50.544C32.83 50.208 32.746 49.8347 32.746 49.424V48.724C32.746 48.3973 32.8207 48.1453 32.97 47.968C33.1194 47.7813 33.39 47.688 33.782 47.688H35.35V48.892H34.188V49.312C34.188 49.872 34.3607 50.2827 34.706 50.544C35.0607 50.796 35.532 50.922 36.12 50.922C36.7267 50.922 37.1934 50.7353 37.52 50.362C37.856 49.9887 38.024 49.4613 38.024 48.78V47.576C38.024 46.8853 37.8374 46.3487 37.464 45.966C37.1 45.5833 36.582 45.392 35.91 45.392C35.35 45.392 34.8694 45.5087 34.468 45.742C34.076 45.9753 33.7774 46.2553 33.572 46.582L32.62 45.728C32.8907 45.28 33.306 44.9067 33.866 44.608C34.426 44.3 35.1307 44.146 35.98 44.146C37.1374 44.146 38.038 44.5007 38.682 45.21C39.326 45.91 39.648 46.89 39.648 48.15C39.648 48.766 39.5687 49.326 39.41 49.83C39.2514 50.3247 39.018 50.7447 38.71 51.09C38.402 51.4353 38.024 51.7013 37.576 51.888C37.128 52.0747 36.6194 52.168 36.05 52.168ZM47.4588 52.168C46.3948 52.168 45.5688 51.8133 44.9808 51.104C44.3928 50.3853 44.0988 49.4007 44.0988 48.15C44.0988 47.5433 44.1828 46.9927 44.3508 46.498C44.5282 46.0033 44.7755 45.5833 45.0928 45.238C45.4195 44.8833 45.8115 44.6127 46.2688 44.426C46.7262 44.2393 47.2395 44.146 47.8088 44.146C48.3315 44.146 48.8075 44.2253 49.2368 44.384C49.6662 44.5333 50.0302 44.748 50.3288 45.028C50.6368 45.308 50.8702 45.6487 51.0288 46.05C51.1968 46.442 51.2808 46.8807 51.2808 47.366V52H49.7548V47.492C49.7548 46.8293 49.5775 46.316 49.2228 45.952C48.8682 45.5787 48.3828 45.392 47.7668 45.392C47.1228 45.392 46.6188 45.5927 46.2548 45.994C45.9002 46.3953 45.7228 46.9413 45.7228 47.632V48.654C45.7228 49.3913 45.8815 49.956 46.1988 50.348C46.5255 50.7307 47.0202 50.922 47.6828 50.922C47.8882 50.922 48.0795 50.9033 48.2568 50.866L48.4388 52.07C48.2988 52.1073 48.1308 52.1307 47.9348 52.14C47.7482 52.1587 47.5895 52.168 47.4588 52.168ZM45.1132 41.738H49.7192V40.632H51.1472V42.942H45.1132V41.738ZM59.3315 52.168C58.2302 52.168 57.3808 51.8227 56.7835 51.132C56.1955 50.432 55.9015 49.4287 55.9015 48.122C55.9015 46.8433 56.0975 45.8633 56.4895 45.182C56.8815 44.4913 57.4835 44.146 58.2955 44.146C58.6968 44.146 59.0328 44.2627 59.3035 44.496C59.5742 44.72 59.7468 45.0327 59.8215 45.434H59.9055C59.9895 45.0327 60.1855 44.72 60.4935 44.496C60.8015 44.2627 61.1795 44.146 61.6275 44.146C62.1968 44.146 62.6448 44.3327 62.9715 44.706C63.2982 45.07 63.4615 45.588 63.4615 46.26V52H61.9355V46.386C61.9355 46.0593 61.8702 45.8167 61.7395 45.658C61.6088 45.4993 61.4222 45.42 61.1795 45.42C60.8808 45.42 60.6755 45.532 60.5635 45.756C60.4515 45.9707 60.3768 46.218 60.3395 46.498H59.3875C59.3688 46.358 59.3408 46.2227 59.3035 46.092C59.2755 45.9613 59.2288 45.8493 59.1635 45.756C59.0982 45.6533 59.0142 45.574 58.9115 45.518C58.8182 45.4527 58.6968 45.42 58.5475 45.42C58.1648 45.42 57.8988 45.6067 57.7495 45.98C57.6002 46.344 57.5255 46.8293 57.5255 47.436V48.724C57.5255 49.06 57.5628 49.3633 57.6375 49.634C57.7122 49.9047 57.8288 50.138 57.9875 50.334C58.1555 50.5207 58.3655 50.6653 58.6175 50.768C58.8788 50.8707 59.1962 50.922 59.5695 50.922C59.6628 50.922 59.7608 50.9173 59.8635 50.908C59.9662 50.8987 60.0688 50.8847 60.1715 50.866L60.3395 52.07C60.1902 52.1073 60.0222 52.1307 59.8355 52.14C59.6582 52.1587 59.4902 52.168 59.3315 52.168ZM61.849 40.226H63.277V42.942H61.849V40.226ZM71.475 52.168C71.0083 52.168 70.5696 52.1027 70.159 51.972C69.7576 51.832 69.4076 51.6453 69.109 51.412C68.8196 51.1693 68.591 50.88 68.423 50.544C68.255 50.208 68.171 49.8347 68.171 49.424V48.724C68.171 48.3973 68.2456 48.1453 68.395 47.968C68.5443 47.7813 68.815 47.688 69.207 47.688H70.775V48.892H69.613V49.312C69.613 49.872 69.7856 50.2827 70.131 50.544C70.4856 50.796 70.957 50.922 71.545 50.922C72.1516 50.922 72.6183 50.7353 72.945 50.362C73.281 49.9887 73.449 49.4613 73.449 48.78V47.576C73.449 46.8853 73.2623 46.3487 72.889 45.966C72.525 45.5833 72.007 45.392 71.335 45.392C70.775 45.392 70.2943 45.5087 69.893 45.742C69.501 45.9753 69.2023 46.2553 68.997 46.582L68.045 45.728C68.3156 45.28 68.731 44.9067 69.291 44.608C69.851 44.3 70.5556 44.146 71.405 44.146C72.5623 44.146 73.463 44.5007 74.107 45.21C74.751 45.91 75.073 46.89 75.073 48.15C75.073 48.766 74.9936 49.326 74.835 49.83C74.6763 50.3247 74.443 50.7447 74.135 51.09C73.827 51.4353 73.449 51.7013 73.001 51.888C72.553 52.0747 72.0443 52.168 71.475 52.168ZM81.8058 52C81.2738 52 80.8771 51.8647 80.6158 51.594C80.3638 51.3233 80.2378 50.9453 80.2378 50.46V44.79C80.2378 44.566 80.2704 44.3653 80.3358 44.188C80.4011 44.0107 80.4851 43.852 80.5878 43.712C80.6904 43.5627 80.8024 43.4273 80.9238 43.306C81.0544 43.1753 81.1804 43.0493 81.3018 42.928C81.4791 42.76 81.6284 42.5827 81.7498 42.396C81.8804 42.2093 81.9458 41.99 81.9458 41.738C81.9458 41.4113 81.8478 41.164 81.6518 40.996C81.4651 40.828 81.2178 40.744 80.9098 40.744C80.5644 40.744 80.2798 40.8467 80.0558 41.052C79.8411 41.248 79.6778 41.5373 79.5658 41.92L78.4178 41.276C78.6044 40.7627 78.9078 40.3427 79.3278 40.016C79.7478 39.68 80.3264 39.512 81.0638 39.512C81.7918 39.512 82.3658 39.7033 82.7858 40.086C83.2058 40.4593 83.4158 40.954 83.4158 41.57C83.4158 41.9807 83.3224 42.3213 83.1358 42.592C82.9584 42.8627 82.7624 43.1147 82.5478 43.348C82.3518 43.5627 82.1698 43.7773 82.0018 43.992C81.8431 44.2067 81.7638 44.454 81.7638 44.734V50.754H82.8558V52H81.8058ZM88.1287 48.92H87.3167V47.674H88.4367C88.9034 47.674 89.2114 47.8793 89.3607 48.29L90.2427 50.81H90.6907C91.0827 50.81 91.3954 50.6233 91.6287 50.25C91.8621 49.8767 91.9787 49.3587 91.9787 48.696V47.492C91.9787 46.8293 91.8014 46.316 91.4467 45.952C91.0921 45.5787 90.5927 45.392 89.9487 45.392C89.6407 45.392 89.3561 45.4293 89.0947 45.504C88.8427 45.5787 88.6187 45.6813 88.4227 45.812C88.2267 45.9333 88.0541 46.0733 87.9047 46.232C87.7554 46.3907 87.6294 46.554 87.5267 46.722L86.5607 45.868C86.7007 45.6347 86.8734 45.4153 87.0787 45.21C87.2841 45.0047 87.5267 44.8227 87.8067 44.664C88.0961 44.5053 88.4227 44.3793 88.7867 44.286C89.1507 44.1927 89.5614 44.146 90.0187 44.146C91.1481 44.146 92.0254 44.496 92.6507 45.196C93.2854 45.8867 93.6027 46.8527 93.6027 48.094C93.6027 48.7007 93.5327 49.2467 93.3927 49.732C93.2527 50.2173 93.0521 50.628 92.7907 50.964C92.5294 51.3 92.2167 51.5567 91.8527 51.734C91.4887 51.9113 91.0781 52 90.6207 52H89.2207L88.1287 48.92Z" fill="#404040"/>
<defs>
<clipPath id="clip0_433_142">
<rect width="32" height="32" fill="white" transform="translate(40.5)"/>
</clipPath>
</defs>
</svg>
