<svg width="144" height="24" viewBox="0 0 144 24" fill="none" xmlns="http://www.w3.org/2000/svg">
<g clip-path="url(#clip0_455_145)">
<rect width="24" height="24" fill="white"/>
<circle cx="12" cy="6.69737" r="6.94737" fill="#FEB3E2"/>
<circle cx="17.0526" cy="10.4869" r="6.94737" fill="#FEB3E2"/>
<circle cx="6.94737" cy="10.4869" r="6.94737" fill="#FEB3E2"/>
<circle cx="9.15782" cy="16.1711" r="6.94737" fill="#FEB3E2"/>
<circle cx="15.1578" cy="16.1711" r="6.94737" fill="#FEB3E2"/>
<circle cx="12" cy="6.69737" r="6.77237" stroke="white" stroke-width="0.35"/>
<circle cx="17.0526" cy="10.4869" r="6.77237" stroke="white" stroke-width="0.35"/>
<circle cx="6.94737" cy="10.4869" r="6.77237" stroke="white" stroke-width="0.35"/>
<circle cx="9.15782" cy="16.1711" r="6.77237" stroke="white" stroke-width="0.35"/>
<circle cx="15.1578" cy="16.1711" r="6.77237" stroke="white" stroke-width="0.35"/>
</g>
<path d="M35.1503 7.02H37.2103L37.8703 12.44L38.1103 15.52H38.2303L38.9903 12.44L40.4703 7.02H42.1303L43.6103 12.44L44.3703 15.52H44.4903L44.7303 12.44L45.3903 7.02H47.4103L45.8503 18H43.5303L41.9103 11.76L41.3303 9.34H41.2303L40.6503 11.76L39.0303 18H36.7103L35.1503 7.02ZM58.7858 18.24C58.1191 18.24 57.4925 18.1467 56.9058 17.96C56.3324 17.76 55.8324 17.4933 55.4058 17.16C54.9924 16.8133 54.6658 16.4 54.4258 15.92C54.1858 15.44 54.0658 14.9067 54.0658 14.32V13.32C54.0658 12.8533 54.1724 12.4933 54.3858 12.24C54.5991 11.9733 54.9858 11.84 55.5458 11.84H57.7858V13.56H56.1258V14.16C56.1258 14.96 56.3725 15.5467 56.8658 15.92C57.3725 16.28 58.0458 16.46 58.8858 16.46C59.7524 16.46 60.4191 16.1933 60.8858 15.66C61.3658 15.1267 61.6058 14.3733 61.6058 13.4V11.68C61.6058 10.6933 61.3391 9.92667 60.8058 9.38C60.2858 8.83333 59.5458 8.56 58.5858 8.56C57.7858 8.56 57.0991 8.72667 56.5258 9.06C55.9658 9.39333 55.5391 9.79333 55.2458 10.26L53.8858 9.04C54.2724 8.4 54.8658 7.86667 55.6658 7.44C56.4658 7 57.4725 6.78 58.6858 6.78C60.3391 6.78 61.6258 7.28667 62.5458 8.3C63.4658 9.3 63.9258 10.7 63.9258 12.5C63.9258 13.38 63.8125 14.18 63.5858 14.9C63.3591 15.6067 63.0258 16.2067 62.5858 16.7C62.1458 17.1933 61.6058 17.5733 60.9658 17.84C60.3258 18.1067 59.5991 18.24 58.7858 18.24ZM75.0841 18.24C73.5641 18.24 72.3841 17.7333 71.5441 16.72C70.7041 15.6933 70.2841 14.2867 70.2841 12.5C70.2841 11.6333 70.4041 10.8467 70.6441 10.14C70.8974 9.43333 71.2507 8.83333 71.7041 8.34C72.1707 7.83333 72.7307 7.44667 73.3841 7.18C74.0374 6.91333 74.7707 6.78 75.5841 6.78C76.3307 6.78 77.0107 6.89333 77.6241 7.12C78.2374 7.33333 78.7574 7.64 79.1841 8.04C79.6241 8.44 79.9574 8.92667 80.1841 9.5C80.4241 10.06 80.5441 10.6867 80.5441 11.38V18H78.3641V11.56C78.3641 10.6133 78.1107 9.88 77.6041 9.36C77.0974 8.82667 76.4041 8.56 75.5241 8.56C74.6041 8.56 73.8841 8.84667 73.3641 9.42C72.8574 9.99333 72.6041 10.7733 72.6041 11.76V13.22C72.6041 14.2733 72.8307 15.08 73.2841 15.64C73.7507 16.1867 74.4574 16.46 75.4041 16.46C75.6974 16.46 75.9707 16.4333 76.2241 16.38L76.4841 18.1C76.2841 18.1533 76.0441 18.1867 75.7641 18.2C75.4974 18.2267 75.2707 18.24 75.0841 18.24ZM71.7331 3.34H78.3131V1.76H80.3531V5.06H71.7331V3.34ZM92.045 18.24C90.4717 18.24 89.2583 17.7467 88.405 16.76C87.565 15.76 87.145 14.3267 87.145 12.46C87.145 10.6333 87.425 9.23333 87.985 8.26C88.545 7.27333 89.405 6.78 90.565 6.78C91.1383 6.78 91.6183 6.94667 92.005 7.28C92.3917 7.6 92.6383 8.04667 92.745 8.62H92.865C92.985 8.04667 93.265 7.6 93.705 7.28C94.145 6.94667 94.685 6.78 95.325 6.78C96.1383 6.78 96.7783 7.04667 97.245 7.58C97.7117 8.1 97.945 8.84 97.945 9.8V18H95.765V9.98C95.765 9.51333 95.6717 9.16667 95.485 8.94C95.2983 8.71333 95.0317 8.6 94.685 8.6C94.2583 8.6 93.965 8.76 93.805 9.08C93.645 9.38667 93.5383 9.74 93.485 10.14H92.125C92.0983 9.94 92.0583 9.74667 92.005 9.56C91.965 9.37333 91.8983 9.21333 91.805 9.08C91.7117 8.93333 91.5917 8.82 91.445 8.74C91.3117 8.64667 91.1383 8.6 90.925 8.6C90.3783 8.6 89.9983 8.86667 89.785 9.4C89.5717 9.92 89.465 10.6133 89.465 11.48V13.32C89.465 13.8 89.5183 14.2333 89.625 14.62C89.7317 15.0067 89.8983 15.34 90.125 15.62C90.365 15.8867 90.665 16.0933 91.025 16.24C91.3983 16.3867 91.8517 16.46 92.385 16.46C92.5183 16.46 92.6583 16.4533 92.805 16.44C92.9517 16.4267 93.0983 16.4067 93.245 16.38L93.485 18.1C93.2717 18.1533 93.0317 18.1867 92.765 18.2C92.5117 18.2267 92.2717 18.24 92.045 18.24ZM95.6414 1.18H97.6814V5.06H95.6414V1.18ZM109.393 18.24C108.726 18.24 108.099 18.1467 107.513 17.96C106.939 17.76 106.439 17.4933 106.013 17.16C105.599 16.8133 105.273 16.4 105.033 15.92C104.793 15.44 104.673 14.9067 104.673 14.32V13.32C104.673 12.8533 104.779 12.4933 104.993 12.24C105.206 11.9733 105.593 11.84 106.153 11.84H108.393V13.56H106.733V14.16C106.733 14.96 106.979 15.5467 107.473 15.92C107.979 16.28 108.653 16.46 109.493 16.46C110.359 16.46 111.026 16.1933 111.493 15.66C111.973 15.1267 112.213 14.3733 112.213 13.4V11.68C112.213 10.6933 111.946 9.92667 111.413 9.38C110.893 8.83333 110.153 8.56 109.193 8.56C108.393 8.56 107.706 8.72667 107.133 9.06C106.573 9.39333 106.146 9.79333 105.853 10.26L104.493 9.04C104.879 8.4 105.473 7.86667 106.273 7.44C107.073 7 108.079 6.78 109.293 6.78C110.946 6.78 112.233 7.28667 113.153 8.3C114.073 9.3 114.533 10.7 114.533 12.5C114.533 13.38 114.419 14.18 114.193 14.9C113.966 15.6067 113.633 16.2067 113.193 16.7C112.753 17.1933 112.213 17.5733 111.573 17.84C110.933 18.1067 110.206 18.24 109.393 18.24ZM124.151 18C123.391 18 122.824 17.8067 122.451 17.42C122.091 17.0333 121.911 16.4933 121.911 15.8V7.7C121.911 7.38 121.958 7.09333 122.051 6.84C122.144 6.58667 122.264 6.36 122.411 6.16C122.558 5.94667 122.718 5.75333 122.891 5.58C123.078 5.39333 123.258 5.21333 123.431 5.04C123.684 4.8 123.898 4.54667 124.071 4.28C124.258 4.01333 124.351 3.7 124.351 3.34C124.351 2.87333 124.211 2.52 123.931 2.28C123.664 2.04 123.311 1.92 122.871 1.92C122.378 1.92 121.971 2.06667 121.651 2.36C121.344 2.64 121.111 3.05333 120.951 3.6L119.311 2.68C119.578 1.94667 120.011 1.34667 120.611 0.879999C121.211 0.399999 122.038 0.16 123.091 0.16C124.131 0.16 124.951 0.433333 125.551 0.98C126.151 1.51333 126.451 2.22 126.451 3.1C126.451 3.68667 126.318 4.17333 126.051 4.56C125.798 4.94667 125.518 5.30667 125.211 5.64C124.931 5.94667 124.671 6.25333 124.431 6.56C124.204 6.86667 124.091 7.22 124.091 7.62V16.22H125.651V18H124.151ZM133.184 13.6H132.024V11.82H133.624C134.291 11.82 134.731 12.1133 134.944 12.7L136.204 16.3H136.844C137.404 16.3 137.851 16.0333 138.184 15.5C138.517 14.9667 138.684 14.2267 138.684 13.28V11.56C138.684 10.6133 138.431 9.88 137.924 9.36C137.417 8.82667 136.704 8.56 135.784 8.56C135.344 8.56 134.937 8.61333 134.564 8.72C134.204 8.82667 133.884 8.97333 133.604 9.16C133.324 9.33333 133.077 9.53333 132.864 9.76C132.651 9.98667 132.471 10.22 132.324 10.46L130.944 9.24C131.144 8.90667 131.391 8.59333 131.684 8.3C131.977 8.00667 132.324 7.74667 132.724 7.52C133.137 7.29333 133.604 7.11333 134.124 6.98C134.644 6.84667 135.231 6.78 135.884 6.78C137.497 6.78 138.751 7.28 139.644 8.28C140.551 9.26667 141.004 10.6467 141.004 12.42C141.004 13.2867 140.904 14.0667 140.704 14.76C140.504 15.4533 140.217 16.04 139.844 16.52C139.471 17 139.024 17.3667 138.504 17.62C137.984 17.8733 137.397 18 136.744 18H134.744L133.184 13.6Z" fill="#7F7F7F"/>
<defs>
<clipPath id="clip0_455_145">
<rect width="24" height="24" fill="white"/>
</clipPath>
</defs>
</svg>
