<svg width="238" height="48" viewBox="0 0 238 48" fill="none" xmlns="http://www.w3.org/2000/svg">
<g clip-path="url(#clip0_157:184)">
<rect width="48" height="48" fill="white"/>
<circle cx="24" cy="15.3947" r="13.8947" fill="#FEB3E2"/>
<circle cx="34.1053" cy="22.9738" r="13.8947" fill="#FEB3E2"/>
<circle cx="13.8947" cy="22.9738" r="13.8947" fill="#FEB3E2"/>
<circle cx="18.3158" cy="34.3423" r="13.8947" fill="#FEB3E2"/>
<circle cx="30.3158" cy="34.3423" r="13.8947" fill="#FEB3E2"/>
<circle cx="24" cy="15.3947" r="13.5447" stroke="white" stroke-width="0.7"/>
<circle cx="34.1053" cy="22.9738" r="13.5447" stroke="white" stroke-width="0.7"/>
<circle cx="13.8947" cy="22.9738" r="13.5447" stroke="white" stroke-width="0.7"/>
<circle cx="18.3158" cy="34.3423" r="13.5447" stroke="white" stroke-width="0.7"/>
<circle cx="30.3158" cy="34.3423" r="13.5447" stroke="white" stroke-width="0.7"/>
</g>
<path d="M66.4405 18.432H69.7365L70.7925 27.104L71.1765 32.032H71.3685L72.5845 27.104L74.9525 18.432H77.6085L79.9765 27.104L81.1925 32.032H81.3845L81.7685 27.104L82.8245 18.432H86.0565L83.5605 36H79.8485L77.2565 26.016L76.3285 22.144H76.1685L75.2405 26.016L72.6485 36H68.9365L66.4405 18.432ZM104.257 36.384C103.191 36.384 102.188 36.2347 101.249 35.936C100.332 35.616 99.5319 35.1893 98.8492 34.656C98.1879 34.1013 97.6652 33.44 97.2812 32.672C96.8972 31.904 96.7052 31.0507 96.7052 30.112V28.512C96.7052 27.7653 96.8759 27.1893 97.2172 26.784C97.5586 26.3573 98.1772 26.144 99.0732 26.144H102.657V28.896H100.001V29.856C100.001 31.136 100.396 32.0747 101.185 32.672C101.996 33.248 103.073 33.536 104.417 33.536C105.804 33.536 106.871 33.1093 107.617 32.256C108.385 31.4027 108.769 30.1973 108.769 28.64V25.888C108.769 24.3093 108.343 23.0827 107.489 22.208C106.657 21.3333 105.473 20.896 103.937 20.896C102.657 20.896 101.559 21.1627 100.641 21.696C99.7452 22.2293 99.0626 22.8693 98.5932 23.616L96.4172 21.664C97.0359 20.64 97.9852 19.7867 99.2652 19.104C100.545 18.4 102.156 18.048 104.097 18.048C106.743 18.048 108.801 18.8587 110.273 20.48C111.745 22.08 112.481 24.32 112.481 27.2C112.481 28.608 112.3 29.888 111.937 31.04C111.575 32.1707 111.041 33.1307 110.337 33.92C109.633 34.7093 108.769 35.3173 107.745 35.744C106.721 36.1707 105.559 36.384 104.257 36.384ZM130.334 36.384C127.902 36.384 126.014 35.5733 124.67 33.952C123.326 32.3093 122.654 30.0587 122.654 27.2C122.654 25.8133 122.846 24.5547 123.23 23.424C123.636 22.2933 124.201 21.3333 124.926 20.544C125.673 19.7333 126.569 19.1147 127.614 18.688C128.66 18.2613 129.833 18.048 131.134 18.048C132.329 18.048 133.417 18.2293 134.398 18.592C135.38 18.9333 136.212 19.424 136.894 20.064C137.599 20.704 138.132 21.4827 138.494 22.4C138.878 23.296 139.07 24.2987 139.07 25.408V36H135.582V25.696C135.582 24.1813 135.177 23.008 134.366 22.176C133.556 21.3227 132.446 20.896 131.038 20.896C129.566 20.896 128.414 21.3547 127.582 22.272C126.772 23.1893 126.366 24.4373 126.366 26.016V28.352C126.366 30.0373 126.729 31.328 127.454 32.224C128.201 33.0987 129.332 33.536 130.846 33.536C131.316 33.536 131.753 33.4933 132.158 33.408L132.575 36.16C132.254 36.2453 131.87 36.2987 131.422 36.32C130.996 36.3627 130.633 36.384 130.334 36.384ZM124.973 12.544H135.501V10.016H138.765V15.296H124.973V12.544ZM157.472 36.384C154.955 36.384 153.013 35.5947 151.648 34.016C150.304 32.416 149.632 30.1227 149.632 27.136C149.632 24.2133 150.08 21.9733 150.976 20.416C151.872 18.8373 153.248 18.048 155.104 18.048C156.021 18.048 156.789 18.3147 157.408 18.848C158.027 19.36 158.421 20.0747 158.592 20.992H158.784C158.976 20.0747 159.424 19.36 160.128 18.848C160.832 18.3147 161.696 18.048 162.72 18.048C164.021 18.048 165.045 18.4747 165.792 19.328C166.539 20.16 166.912 21.344 166.912 22.88V36H163.424V23.168C163.424 22.4213 163.275 21.8667 162.976 21.504C162.677 21.1413 162.251 20.96 161.696 20.96C161.013 20.96 160.544 21.216 160.288 21.728C160.032 22.2187 159.861 22.784 159.776 23.424H157.6C157.557 23.104 157.493 22.7947 157.408 22.496C157.344 22.1973 157.237 21.9413 157.088 21.728C156.939 21.4933 156.747 21.312 156.512 21.184C156.299 21.0347 156.021 20.96 155.68 20.96C154.805 20.96 154.197 21.3867 153.856 22.24C153.515 23.072 153.344 24.1813 153.344 25.568V28.512C153.344 29.28 153.429 29.9733 153.6 30.592C153.771 31.2107 154.037 31.744 154.4 32.192C154.784 32.6187 155.264 32.9493 155.84 33.184C156.437 33.4187 157.163 33.536 158.016 33.536C158.229 33.536 158.453 33.5253 158.688 33.504C158.923 33.4827 159.157 33.4507 159.392 33.408L159.776 36.16C159.435 36.2453 159.051 36.2987 158.624 36.32C158.219 36.3627 157.835 36.384 157.472 36.384ZM163.226 9.088H166.49V15.296H163.226V9.088ZM185.229 36.384C184.162 36.384 183.159 36.2347 182.221 35.936C181.303 35.616 180.503 35.1893 179.821 34.656C179.159 34.1013 178.637 33.44 178.253 32.672C177.869 31.904 177.677 31.0507 177.677 30.112V28.512C177.677 27.7653 177.847 27.1893 178.189 26.784C178.53 26.3573 179.149 26.144 180.045 26.144H183.629V28.896H180.973V29.856C180.973 31.136 181.367 32.0747 182.157 32.672C182.967 33.248 184.045 33.536 185.389 33.536C186.775 33.536 187.842 33.1093 188.589 32.256C189.357 31.4027 189.741 30.1973 189.741 28.64V25.888C189.741 24.3093 189.314 23.0827 188.461 22.208C187.629 21.3333 186.445 20.896 184.909 20.896C183.629 20.896 182.53 21.1627 181.613 21.696C180.717 22.2293 180.034 22.8693 179.565 23.616L177.389 21.664C178.007 20.64 178.957 19.7867 180.237 19.104C181.517 18.4 183.127 18.048 185.069 18.048C187.714 18.048 189.773 18.8587 191.245 20.48C192.717 22.08 193.453 24.32 193.453 27.2C193.453 28.608 193.271 29.888 192.909 31.04C192.546 32.1707 192.013 33.1307 191.309 33.92C190.605 34.7093 189.741 35.3173 188.717 35.744C187.693 36.1707 186.53 36.384 185.229 36.384ZM208.842 36C207.626 36 206.719 35.6907 206.122 35.072C205.546 34.4533 205.258 33.5893 205.258 32.48V19.52C205.258 19.008 205.332 18.5493 205.482 18.144C205.631 17.7387 205.823 17.376 206.058 17.056C206.292 16.7147 206.548 16.4053 206.826 16.128C207.124 15.8293 207.412 15.5413 207.69 15.264C208.095 14.88 208.436 14.4747 208.714 14.048C209.012 13.6213 209.162 13.12 209.162 12.544C209.162 11.7973 208.938 11.232 208.49 10.848C208.063 10.464 207.498 10.272 206.794 10.272C206.004 10.272 205.354 10.5067 204.842 10.976C204.351 11.424 203.978 12.0853 203.722 12.96L201.098 11.488C201.524 10.3147 202.218 9.35467 203.178 8.608C204.138 7.84 205.46 7.456 207.146 7.456C208.81 7.456 210.122 7.89333 211.082 8.768C212.042 9.62133 212.522 10.752 212.522 12.16C212.522 13.0987 212.308 13.8773 211.882 14.496C211.476 15.1147 211.028 15.6907 210.538 16.224C210.09 16.7147 209.674 17.2053 209.29 17.696C208.927 18.1867 208.746 18.752 208.746 19.392V33.152H211.242V36H208.842ZM223.294 28.96H221.438V26.112H223.998C225.065 26.112 225.769 26.5813 226.11 27.52L228.126 33.28H229.15C230.046 33.28 230.761 32.8533 231.294 32C231.828 31.1467 232.094 29.9627 232.094 28.448V25.696C232.094 24.1813 231.689 23.008 230.878 22.176C230.068 21.3227 228.926 20.896 227.454 20.896C226.75 20.896 226.1 20.9813 225.502 21.152C224.926 21.3227 224.414 21.5573 223.966 21.856C223.518 22.1333 223.124 22.4533 222.782 22.816C222.441 23.1787 222.153 23.552 221.918 23.936L219.71 21.984C220.03 21.4507 220.425 20.9493 220.894 20.48C221.364 20.0107 221.918 19.5947 222.558 19.232C223.22 18.8693 223.966 18.5813 224.798 18.368C225.63 18.1547 226.569 18.048 227.614 18.048C230.196 18.048 232.201 18.848 233.63 20.448C235.081 22.0267 235.806 24.2347 235.806 27.072C235.806 28.4587 235.646 29.7067 235.326 30.816C235.006 31.9253 234.548 32.864 233.95 33.632C233.353 34.4 232.638 34.9867 231.806 35.392C230.974 35.7973 230.036 36 228.99 36H225.79L223.294 28.96Z" fill="#686868"/>
<defs>
<clipPath id="clip0_157:184">
<rect width="48" height="48" fill="white"/>
</clipPath>
</defs>
</svg>
